<svg width="9" height="9" viewBox="0 0 9 9" fill="none" xmlns="http://www.w3.org/2000/svg">
<path d="M0.146447 0.146447C0.338683 -0.0478972 0.645911 -0.0270359 0.853553 0.146447L4.5 3.793L8.14645 0.146447C8.34171 -0.0488155 8.65829 -0.0488155 8.85355 0.146447C9.04882 0.341709 9.04882 0.658291 8.85355 0.853553L5.207 4.5L8.85355 8.14645C9.05934 8.35223 9.03129 8.67582 8.85355 8.85355C8.67582 9.03129 8.35409 9.02703 8.14645 8.85355L4.5 5.207L0.853553 8.85355C0.658291 9.04882 0.341709 9.04882 0.146447 8.85355C-0.0488155 8.65829 -0.0488155 8.34171 0.146447 8.14645L3.793 4.5L0.146447 0.853553C-0.0268697 0.680237 -0.0457894 0.34079 0.146447 0.146447Z" fill="#101010"/>
</svg>
